/* XPM */
static char *_7c79e863c4940c8dc51a21d07cfd054[] = {
/* columns rows colors chars-per-pixel */
"64 64 256 2 ",
"   c #060504",
".  c #0A0604",
"X  c #0B0A06",
"o  c #0D0C0A",
"O  c #040808",
"+  c #130B05",
"@  c #1B0D05",
"#  c #140E0A",
"$  c #1A0E0B",
"%  c #110708",
"&  c #0C140D",
"*  c #15110D",
"=  c #1B130D",
"-  c #181007",
";  c #151412",
":  c #1B1512",
">  c #1C1915",
",  c #1D1B19",
"<  c #161814",
"1  c #140F10",
"2  c #240B02",
"3  c #250C05",
"4  c #23130D",
"5  c #2A150C",
"6  c #35170B",
"7  c #231513",
"8  c #231A15",
"9  c #2B1A15",
"0  c #241C1A",
"q  c #2C1C1A",
"w  c #2A1714",
"e  c #331C13",
"r  c #3B1D15",
"t  c #331D1A",
"y  c #371C18",
"u  c #310E00",
"i  c #19211B",
"p  c #25211C",
"a  c #2B231D",
"s  c #2A2116",
"d  c #33231D",
"f  c #3B231C",
"g  c #3A251A",
"h  c #172D33",
"j  c #2C2522",
"k  c #282724",
"l  c #342522",
"z  c #3B2621",
"x  c #342B24",
"c  c #3C2B24",
"v  c #372D2A",
"b  c #3B322C",
"n  c #38332A",
"m  c #3A3835",
"M  c #2C3335",
"N  c #2B1F21",
"B  c #441C10",
"V  c #44241B",
"C  c #432A1E",
"Z  c #4B271B",
"A  c #522A1D",
"S  c #562816",
"D  c #542E1A",
"F  c #442B24",
"G  c #4B2C23",
"H  c #462A27",
"J  c #542D23",
"K  c #562D27",
"L  c #44332C",
"P  c #4C332C",
"I  c #49362A",
"U  c #5C3124",
"Y  c #53342C",
"T  c #58362A",
"R  c #4C3B33",
"E  c #473934",
"W  c #543631",
"Q  c #543B33",
"!  c #5B3C35",
"~  c #5B3E39",
"^  c #573A37",
"/  c #592F30",
"(  c #643729",
")  c #623D34",
"_  c #6C3627",
"`  c #642B1A",
"'  c #5D423C",
"]  c #564238",
"[  c #4D423B",
"{  c #63433C",
"}  c #694839",
"|  c #754939",
" . c #734C36",
".. c #19394B",
"X. c #1F344B",
"o. c #334E55",
"O. c #185970",
"+. c #315566",
"@. c #1D6D7B",
"#. c #326978",
"$. c #2E6872",
"%. c #174E57",
"&. c #5A4844",
"*. c #4C5153",
"=. c #644642",
"-. c #684C46",
";. c #764C48",
":. c #6C524D",
">. c #685449",
",. c #765549",
"<. c #6B5855",
"1. c #795B55",
"2. c #6B4E53",
"3. c #78635A",
"4. c #786D49",
"5. c #645A64",
"6. c #506C72",
"7. c #7B6964",
"8. c #6F7372",
"9. c #5B6362",
"0. c #413F3D",
"q. c #85523F",
"w. c #885948",
"e. c #965A4A",
"r. c #865C53",
"t. c #8F544A",
"y. c #8E644A",
"u. c #98654C",
"i. c #876558",
"p. c #946353",
"a. c #986958",
"s. c #99745A",
"d. c #8E7451",
"f. c #A76A59",
"g. c #B56E5C",
"h. c #A8745C",
"j. c #B9765C",
"k. c #AB6A49",
"l. c #8A6C65",
"z. c #856A65",
"x. c #8C726B",
"c. c #967468",
"v. c #8A7973",
"b. c #977B75",
"n. c #966C61",
"m. c #A96C66",
"M. c #A37463",
"N. c #AC7463",
"B. c #AB7B63",
"V. c #AC7B6A",
"C. c #A57868",
"Z. c #B27465",
"A. c #B37A63",
"S. c #B37C6B",
"D. c #BB7C6B",
"F. c #B77668",
"G. c #B97D72",
"H. c #AD7271",
"J. c #A15F4B",
"K. c #C37D69",
"L. c #718F7A",
"P. c #698459",
"I. c #BC815D",
"U. c #9A8178",
"Y. c #A98168",
"T. c #B3846B",
"R. c #BB836C",
"E. c #B88567",
"W. c #AC857A",
"Q. c #B98776",
"!. c #BC927E",
"~. c #888151",
"^. c #C5856B",
"/. c #CA8573",
"(. c #C48B74",
"). c #C58D7B",
"_. c #C88877",
"`. c #C9937B",
"'. c #D4937D",
"]. c #D18972",
"[. c #1B6988",
"{. c #18799A",
"}. c #177490",
"|. c #24778A",
" X c #267699",
".X c #33738F",
"XX c #117AA8",
"oX c #2777A6",
"OX c #347CAE",
"+X c #1A5285",
"@X c #457786",
"#X c #4D758A",
"$X c #71768B",
"%X c #567CA3",
"&X c #927488",
"*X c #B36980",
"=X c #1A8498",
"-X c #0D8899",
";X c #2C849A",
":X c #0887A6",
">X c #1788A8",
",X c #188CB5",
"<X c #1896BA",
"1X c #0C92B0",
"2X c #2888A6",
"3X c #2496B8",
"4X c #2F8EAD",
"5X c #6E8E93",
"6X c #4E97AC",
"7X c #57A5B8",
"8X c #6DA8B6",
"9X c #56949F",
"0X c #079AC9",
"qX c #1899C9",
"wX c #069DD3",
"eX c #179BD4",
"rX c #1889C7",
"tX c #229ACA",
"yX c #17A4C6",
"uX c #0BA4D3",
"iX c #17A3D7",
"pX c #0BA2CC",
"aX c #2CA6CE",
"sX c #16ABE3",
"dX c #2CB5E6",
"fX c #4DAAC8",
"gX c #78B7C8",
"hX c #7BC3D3",
"jX c #60C6F0",
"kX c #8C948A",
"lX c #B19389",
"zX c #B9A599",
"xX c #B3A99F",
"cX c #8FACAE",
"vX c #A5AA9D",
"bX c #C79786",
"nX c #D89A85",
"mX c #C3978E",
"MX c #D9A897",
"NX c #D4A28F",
"BX c #E7A993",
"VX c #EEAD95",
"CX c #CEB1A5",
"ZX c #E7B9A9",
"AX c #F3BAA6",
"SX c #EBB7AD",
"DX c #F9C9BA",
"FX c #F2C2B3",
"GX c #D5C8B8",
"HX c #85B6C9",
"JX c #A5D0D4",
"KX c #93CDDB",
"LX c #F6CDC4",
"PX c #FDD4C8",
"IX c #F0D4D0",
"UX c #F6E1E0",
/* pixels */
"_ _ _ u 2 3 - o X O O O O O O O   O o .         o ; > , < ; ; ; & & * + 4 t K / / ` K K K A G T I V P -.2.r.r.1.1.=.W R P R R R ",
"` _ _ u 2 3 - + O O O O O O o O     . .         o ; , < , < < , & & & # = y H / / K J A J A D J G F Y -.1.1.z.1.1.=.W W L L I R ",
"` _ _ B 2 3 - X X O O O O O O O O .       . . . 1 ; < , < , , , < < & = q z W / / / J J K J A G G H ! :.r.z.z.z.1.~ W E I I R I ",
"` _ ` 6 2 5 s - X X O O O O   O     X   O o o o ; < , , , , , , < < , , N v H P W K K / K K J J P P { 1.z.l.l.l.1.&.W W I I R R ",
"` S B u u g n 4 - o o .             . X O o o o ; , , < , ; ; , # : > 8 N l l y F F G T / K G K G P -.3.z.x.c.x.<.{ Q Q R R ] I ",
"( S B u 2 C I 5 * - o X .         .   X % o & * , < > , < ; ; # 1 : : 0 N l j w 4 5 r P Y K K K G W >.i.l.c.b.c.:.' Q W W Q ] R ",
"_ D Z u 2 V I 8 - - + + % . % . . . X % * * * : ; : , , , < > : : 7 7 0 p x j 0 @ @ 5 r K Y K K G W :.z.x.x.b.x.,.' Q W I ] ] L ",
"J B B u 2 V ] d @ - + + + + % + o # # * ; > > > , : 0 p N 0 , : 1 $ : 7 p k j 8 > @ $ e P W / H H R :.z.l.x.b.x.-.' Q W R Q Q I ",
"V B r 2 2 g I d @ @ @ + + + $ $ * * : - * * , a p , : : * * * : 7 7 q N 0 < , p k > - 5 z H / H H R 3.z.z.x.b.l.{ { Y ! P R -.g ",
"6 6 6 2 2 g I c @ @ @ + + + * = + * * * o # : p : ; - * : : * # 1 $ 1 : , < p p k p 8 8 t H P / P [ 3.x.z.c.b.l.=.{ W ^ W W ' c ",
"3 4 5 @ 2 g I F @ @ + + $ # : : # * + o + $ : 0 = * $ * : : = $ % $ % % ; ; , p p p 8 = w t H P I &.3.l.z.b.b.z.~ ) W ^ W Q ' F ",
"4 4 4 @ 4 d L c 2 @ @ + # # # # # * * * * ; , p p > ; - : > > * $ 1 1 1 # & < , p p p 4 $ 7 l L L >.7.z.x.b.b.z.~ ~ Q Q Q ] Q H ",
"7 $ $ $ @ 9 F c 3 @ $ $ $ # % . * $ + * * : p a p a p 8 8 p 8 $ : , , : 1 1 , 0 k p 0 1 7 7 j x c >.3.z.b.b.U.7.~ ! ^ W ! ' Y P ",
"1 1 1 1 $ w x c $ $ 4 : : : # . * $ + + - = 8 s s x v x x p = . o 1 , ; 1 ; , N x p 0 : > 0 p j c <.3.7.b.U.b.1.~ ~ ~ W ' ' Y Q ",
"o % 1 7 $ = q s $ 3 $ 7 0 , , 1 : - - + - * 8 8 k n m n x p > # o o ; < 0 k k N p 0 8 , 8 0 k p x 3.3.7.U.b.b.:.) ~ ' Y ' { P ' ",
"o % % 7 $ $ 7 7 @ $ @ : 0 k p 0 > > * + @ = * 4 n E E v a a 0 : 1 ; < 0 v m m v > 8 0 , , 8 , p n 7.4.7.U.U.b.,.{ ~ ' Y ' { P ' ",
"1 $ $ $ % $ 7 4 @ - = s a n v p < < * $ $ 3 7 w g b [ b n m v j = = p s k n n i : 7 , 7 , N N N d <.3.x.b.U.b.;.{ ! ! ' ! -.I &.",
"$ $ $ $ $ $ 7 = + - = s a x s 8 < < = 8 e y y 5 5 g n m [ [ b a s x n s s s x s 1 , N 0 , N , : 9 &.3.x.b.b.x.-.{ ! ! ~ Q =.I &.",
"$ 1 $ $ - : = = X - 4 8 a d 8 * = : s g H G V r r g c g n L b d n I [ g > = s s # : , N , N 0 7 s [ 3.v.b.W.l.=.{ ~ ! ' ^ &.R :.",
"% $ $ % - = = * + - : q x n d 4 5 s F Q ) ) ) T ] T I n C I L g n n [ n > - = < % ; 7 , , , 0 0 p [ 3.v.U.b.z.=.) ' ~ ~ ~ R ^ <.",
"o $ # o o * o o # $ = 0 v L l 4 6 g ] _ } | ;.w. . .} -.} } ! G I [ [ [ x 8 < - # ; < : : , 0 0 p E <.v.b.v.1.) ) ' ^ ~ &.E ' <.",
"O o o X X o o o 1 $ # 7 N H y 3 6 Z (  .| q.e.s.c.s.d.d.d.,.,.} ] ] ] [ m x s < ; ; : : : 7 0 0 j L <.7.v.x.:.=.&.~ ^ ~ &.P &.3.",
"X o o   O & * & 1 1 $ 4 t z F r g D S  .w.u.N.T.`.!.Y.s.s.a.p.d.>.>.4.*.[ n a : * < < 8 k j j 0 q x <.x.b.x.2.=.) ~ W ^ 2.P 2.<.",
"X O O   O & ; ; 1 1 7 7 y H P K D S S  .f.R.(.(.T.T.T.Y.T.h.h.s.4.<.4.} E a s : * : > j b b L d 7 q &.7.x.z.=.) =.~ W Q 2.L 2.5.",
"o o X X ; < < < o 1 7 7 y ^ =.}  .q.q.k.D.(.].(.(.E.Q.!.j.h.h.h.n.>.' ] g 5 8 8 > = 8 v E E [ L l 7 L 7.z.l.=.{ { { ^ -.=.^ 2.<.",
"o o o o O 1 ; < < , 7 t K -.r.r.d.~.I.I.^.^.A.A.h.h.I.E.E.E.E.B.C.y.} T g g 9 = 4 = 9 d c E ] ' &.l c 1.z.z.) { ^ / K -.2.^ 2.3.",
"+ # & o O o 1 , : 1 7 z &.1.n.c.Y.Y.E.I.k.u.e.e.h.h.Y.Y.E.E.A.N.V.n.,.A V g e 9 d g L g e e G ' 7.F f :.z.1./ { -.;.! =.=.' 2.<.",
"X o + o o & ; > 1 % w / ;.r.n.V.Y.T.T.j.f.f.f.N.T.E.Q.E.Q.R.A.A.M.T.a.| ] G C I R >.<.] f 6 Z { x.L f =.3.;.) 1.H.lXb.r.=.=.<.-.",
"+ + + - : , > ; 7 $ w G { w.a.C.E.E.E.R.T.S.S.G.M.T.Q.!.`.(.R.^.A.^.Z.s.u.=.! { ] i.l.,.! A ( r.x.P f ^ 1.;.;.lXCXLXSXmXc.;.2.-.",
"@ + - : p k , * : 3 3 e G | y.h.Y.T.Q.Q.Q.Z.m.p.w.s.a.s.Q.!.R.(.^.F.N.B.B.y.) T ! 1.i.-.| | ,.c.l.Y V Y ,.;.a.SXLXLXIXLXCXl.,.-.",
"5 4 8 q j j 0 : N 4 3 6 A | e.u.h.T.`.bX).N.p.t.i.a.;. .s.B.T.(./.F.g.N.N.s.;.K T ;.-.| a.n.a.M.i.P C K 1.| i.SXSXLXLXPXLXCXb.;.",
"e e d d l a p q t q w r ) r.a.i.d.c.Q.!.G.a.p.r.bXW.| U q.h.h.(.^.K.K.Z.m.M.p.) A } ) ,.Q.nXR.B.1.T G Y r.=.2.lXSXPXLXDXIXPXmX;.",
"y y z y z f z f d g e e ] } >. .,.4.c.bXlXC.m.m.).a.q.e.f.A.E.^.^.I.A.A.Z.N.M.a.| _ q.B.R.D.g.F.t.T C ' 2.&.&.5.CXFXPXPXPXPXFXlX",
"y y y V f f f f C C g e C ] <.l.}  .s.!.bXT.h.p.u.u.f.h.A.A.D.^.].I.j.Z.Z.N.m.a.p.p.B.T.K.F.K.f.| T I &.5.*.&.2.b.CXPXDXDXPXLXCX",
"r y y y r r V f C G C g e C -.W._  .p.Q.`.).F.f.e.k.g.g.A.D.^.'.^.I.E.Z.Z.m.m.m.M.V.!.Q.Q.(.Z.r.T C G ' 2.&.^ ~ { H.SXDXDXIXUXIX",
"r V r r r V V V C Z D C B 6 Q s. .q.a.D._.`._.G.g.g.f.g.F.].'.'.`.E.E.Z.H.H.m.m.M.h.Y.Q.!.!.n.T g d v [ &.&.^ ~ / t.Q.SXPXDXIXUX",
"V B V B V Z Z A Z A D D Z B J r.e.e.k.A.K.bX/.K.g.g.g.K.].'.'.].).Q.G.H.H.m.m.m.m.a.a.C.Y.d.} e x x n m [ [ ^ W T ( w.lXFXIXIXUX",
"G Z Z J A A J K U J Z J J S ( w.e.e.f.D.K.K.K.].g.g.K./.'.BXBX'.`.bXK.G.m.m.m.m.s.e.p.a.4.' I y c x n m m m F z Z D } 3.lXIXUXIX",
"S Z K A U U U U U U U U U D | p.J.e.g.K./.K.K.K.K.g.g./.'.'.nXnX_._.bXH.H.m.m.J.p.e.y.y.,.} / Y c a a x M M p 7 a L E I <.zXGXIX",
"A S K K U U U U U } _ ( ( _ ) p.m.J.g./.].K././.K.g.Z.].nXBX'.`././._.G.H.m.n.m.a.y.y.y.w. .=./ I a i h h h h h h M M k b 7.CXIX",
"Z A A Z K K K ( ( ( U ( _ ( ( p.h.N.F.nXnX_._.K./.F.j.D.`.nX`.(.K.]._.K.Y.c.s.s.d.u.y.y.t._ ;.| } [ m M %.+.+.+.+.X...h h 0.s.FX",
"Z Z Z A A K K K J ( U U ) U _ a.F.f.a.Z.K.(.).D.(.^.A.B.E.(.(.(.].K.K.).Y.Y.d.d.y.d.u.e.t.q.t.;.4.9.o.$.$.#.+X.X+XO.%...h k ,.lX",
"H V Z Z Z G A J Z T K K ( J ( r.V.B.p.J.f.Z.).).`._.Q.S.h.B.R.(.K.]._.G.Y.d.d.d.u.d.k.u.t.;.t.r.7.6.6.$.|.|. XOXOXoX[.O...i I s.",
"V H H H G G G Z C J J J T J U | M.V.p.e.a.Z.bX_.).).(.R.B.B.T.R.K.K.R.S.h.s.d.d.s.s.k.u.t.2.2.5.9.6.$.@.[.}. XoXOXOXXX}.O.h x &.",
"z z z F F H F F H H H J Y K G K r.H.p.J.m.Z.S.N.K.G.G.Z.N.N.N.A.K.K.F.B.c.s.s.s.I.h.n.n.z.3.9.6.@X.X.X}.-X=X;XoXOX,X3X>X}.%.h M ",
"d d l l l z z z H F H P P K H r / m._.*XZ.e.p.f.F.Z.m.m.N.Z.A.S.D.D.V.M.s.s.a.M.A.h.m.c.v.8.6.6..XoX{.{.-X-X{. XoX2X1X<X1X@.%.X.",
"9 8 0 w q l z z H z H H H W H V B F.VXSX_.t.t.m.m.F.H.G.D.G.G.G.S.N.M.s.a.M.m.Z.F.m.H.v.$XL..X.XoXXX:X:X-X4XoX X XXX1X<XrXoX+XX.",
"= : : 7 7 q t l x z v H c L W K / G.SXAXSXg.t.J.f.m.F.K._._.K.F.G.H.c.s.a.d.h.N.Z.H.b.&X$X.X=X=XXX,X>X>X4X4X4X2X{.oX<X<XyXrXXX+X",
"> > : 7 q q N t q q s a d c c F K mXMXAXFX'.J.J.f.G.Q.Q.bXK.K./.F.m.h.d.~.~.d.h.*X*X&X$X;X{.:X:XrX:X4X8XhXhXfX>X>X>X<X3XyXaXtXXX",
", , 0 w w w w q 7 8 p s a a d d V lXZXSXAXBXF.k.f.G.lXG.bX_.K.K.F.B.h.d.~.P.~.c.*X&X&X9X2X:XXXXXXX{.9XHXcX7X3X:XqXrX<X<XyXyXeXrX",
"0 , 0 7 0 w w w 7 > > > 8 0 q q f i.ZXSXAXVX'.g.S.!.*XQ.bX).R.R.H.M.d.4.4.d.c.c.&X$X.X X=X>X4X3XfX4X8XHX8X;X>XqXaXqX<X<XyXiXeXrX",
"0 0 0 q w w q 7 8 0 8 p 0 0 q e d =.ZXFXAXAXVXj.H.H.lXW.W.Q.T.C.c.l.4.>. . .z.8.$X.X|.{.-X3X3XfXfXfXHXKX8X;X>XqXiXqX<X0XpXiXeXeX",
": 7 9 9 q w q w 0 k 0 0 p 0 q q e C mXSXSXVXMXT.C.W.lXlXH.W.c.s.3.>.' >.2.2.5.#X.X=X-X1X1X2X4X7X6X7XgXgX9X;X<XyXeX0X0XpXpXiXiXeX",
"= 7 9 t t q q N 0 0 , 0 8 0 w q e 6 d.MXFXAXZXmXn.l.b.b.v.z.1.=.I n 0.9.8.5.#X#X;X-X-X-X>X4X8XhX7XhXgX9X;X-XtXsXsXwX0XpXpXuXiXiX",
"8 8 9 s t t t q 0 0 0 0 0 q w w e r T W.ZXDXZXZXa.) W ~ R L z q s s M o.6.#X@X;X-X-X1X1X3X7XKXJXgXHXHX7X;X3XqXuXsXwX0XuXpXuXiXiX",
"5 s 9 s t N N q 0 0 0 0 0 w w y 6 r 2 d.MXDXFXZXlX) r z N 0 k k d n %.%.[..XoX>X1X1XyXfXgXgXKXJXJXgX9X9X=XtXiXiXsXwXwXuXuXuXuXuX",
"b d w d z t w q 0 0 = 8 s q w r 6 B r D Y.ZXDXZXSXc.H w N k k m [ o.%.$.=X{.XX>X1XqXfXjXHXcX5X8XJXcX9X|.,XqXiXiXuXwXwXwXwXwXwXuX",
"lX7.Q 9 w t t t q q 9 9 5 6 H (  . . .} d.!.ZXDXSXlX,.L v M X.o.*.o.$.|. X>XXX,X,X4XhXHX$X$X5X5XvX5X.X=X3XiXeXiXuXwX0XwXiXwXpXuX",
"GXxXb.&.z H v N q 7 w s e Y r.a.~.I.Y.Y.Y.!.MXFXDXZXlX=.0.*.o.o.+.+.@.[.{.XX:X,XtX2XKXJX$X$XcXvXL.6.@.=XqXiXeXiXsX0X0XwXiXiX0XpX",
"CXCXxXlX2./ W v L 9 9 6 Z i.Q.N.Y.Y.E.`.NXNX`.bXZXZXlX<.[ o.6.+.$.O.O.[.{.XXXX<XoX XgXcX$X&XvXkXL.$.@.2XeXiXiXiX0X0XXXwXeXeX0XpX",
"xXzXCXxXx.&.P ^ ] c g u B a.`.f.I.I.I.'.AXAXMXnXnXMXQ.3.*.o.o.+.@.@.+X X{.XX>X4X}.#.#XkXP.vXkXL.L.6.@.<XiXeXtXtXqX1XrXeXeXeXeXpX",
"GXvXzXzXlX=.y H F g 6 u S f.'.D.I.I.].'.AXAXAXVXNXNX!.b.5.9.+.#.@.[.[.+X}.XX>X2X|.L.8.kXL.cXL.L.3.6.;XyXwXwXeX3XtX<XrXtXtXeX0X1X",
"vXzXzXzXzX2.5 g 6 6 r D  .j.].].k.k.I.].BXVXBXBXVXBXbXlX&X8.6..X[..X X[.=X-X1X=X9X9.P.U.P.L.L.L.9.9.;XyXuXuXdXaXaX3X,XrXtXtX0X0X",
"U.vX!.zXzX:.6 C I g D  .T.E.j.j.j.j.I.E.nXBXBXAXVXVXNXzXvX5X6.#..X;X6X X=X4X3X=X9X8.5X~.9.L.L.6.P.6.;XyXuXdXjXjXfX3X,XrXdXdXdXdX"
};
