/* XPM */
static char *_9e432801039411eb7b763ca1535f708[] = {
/* columns rows colors chars-per-pixel */
"43 55 238 2 ",
"   c #000000",
".  c #040303",
"X  c #0A0605",
"o  c #0D0906",
"O  c #0D0A09",
"+  c #130A07",
"@  c #140D0B",
"#  c #1A0E0A",
"$  c #16110D",
"%  c #1C120D",
"&  c #1D1411",
"*  c #1E1813",
"=  c #25140D",
"-  c #2B150E",
";  c #2D190E",
":  c #231611",
">  c #231913",
",  c #2A1C14",
"<  c #291E18",
"1  c #291914",
"2  c #331C12",
"3  c #3C1F14",
"4  c #32150E",
"5  c #2C211B",
"6  c #27221E",
"7  c #3B2216",
"8  c #34231A",
"9  c #3A2419",
"0  c #3C291E",
"q  c #342116",
"w  c #382B23",
"e  c #3A342E",
"r  c #2F2723",
"t  c #411812",
"y  c #432617",
"u  c #45291C",
"i  c #4C2C1D",
"p  c #462619",
"a  c #522C1E",
"s  c #58211B",
"d  c #56301F",
"f  c #442C21",
"g  c #4D2D21",
"h  c #433126",
"j  c #4D3225",
"k  c #44362E",
"l  c #4B3529",
"z  c #4E382B",
"x  c #533323",
"c  c #5B3424",
"v  c #5B3927",
"b  c #5B3C2C",
"n  c #53392B",
"m  c #463930",
"M  c #493D36",
"N  c #543F32",
"B  c #5B2C23",
"V  c #633A26",
"C  c #643D2B",
"Z  c #683927",
"A  c #693128",
"S  c #594437",
"D  c #4B4038",
"F  c #66412E",
"G  c #6C422E",
"H  c #76452F",
"J  c #634434",
"K  c #6A4432",
"L  c #6C4C3A",
"P  c #674A3A",
"I  c #734633",
"U  c #744A35",
"Y  c #7C4C34",
"T  c #734C39",
"R  c #7B4E3A",
"E  c #72513D",
"W  c #7C513C",
"Q  c #5D4E45",
"!  c #674F42",
"~  c #6C5143",
"^  c #66564A",
"/  c #7B5342",
"(  c #785948",
")  c #776153",
"_  c #787169",
"`  c #8D3A34",
"'  c #83533C",
"]  c #8C543C",
"[  c #88553A",
"{  c #95593E",
"}  c #824838",
"|  c #A3443E",
" . c #835541",
".. c #8B5743",
"X. c #835944",
"o. c #8C5B43",
"O. c #885E4A",
"+. c #935D42",
"@. c #9A5D43",
"#. c #985B48",
"$. c #A55E47",
"%. c #B6544D",
"&. c #B55C52",
"*. c #AA4F47",
"=. c #8A614A",
"-. c #9C6446",
";. c #93644D",
":. c #9C644B",
">. c #9E694F",
",. c #946145",
"<. c #836451",
"1. c #8D6B57",
"2. c #9D6A52",
"3. c #956854",
"4. c #9B745D",
"5. c #94735E",
"6. c #8E715E",
"7. c #A36144",
"8. c #A2644C",
"9. c #A26B4C",
"0. c #AB6C4E",
"q. c #AA654B",
"w. c #B26B4E",
"e. c #A56B53",
"r. c #AB6E53",
"t. c #A36D58",
"y. c #B86757",
"u. c #AD7255",
"i. c #A4725A",
"p. c #AB755A",
"a. c #B47454",
"s. c #BA7454",
"d. c #B27559",
"f. c #B47B5C",
"g. c #BA7B5D",
"h. c #BD7659",
"j. c #9C7A64",
"k. c #997763",
"l. c #8A796F",
"z. c #AA7C63",
"x. c #A57A64",
"c. c #B37B61",
"v. c #BB7E63",
"b. c #BE7D68",
"n. c #C05B53",
"m. c #C47B5C",
"M. c #C7655D",
"N. c #C67A63",
"B. c #CB6C61",
"V. c #8F8275",
"C. c #AC836C",
"Z. c #A7846D",
"A. c #BC8162",
"S. c #B5846A",
"D. c #BD856C",
"F. c #BA8B6F",
"G. c #AB8A75",
"H. c #B48C73",
"J. c #BB8D73",
"K. c #B2927B",
"L. c #BD9378",
"P. c #AE917C",
"I. c #C3825F",
"U. c #CA805D",
"Y. c #D2855E",
"T. c #C38364",
"R. c #C38668",
"E. c #C48B6B",
"W. c #CB8B6C",
"Q. c #CA8666",
"!. c #D38D6B",
"~. c #D68A67",
"^. c #CD936D",
"/. c #D4926C",
"(. c #DD926C",
"). c #D9996E",
"_. c #C38D72",
"`. c #C88C73",
"'. c #D28871",
"]. c #CB9373",
"[. c #C4927A",
"{. c #C9977B",
"}. c #CC9B7C",
"|. c #C79778",
" X c #D49373",
".X c #DB9673",
"XX c #D59B75",
"oX c #DB9A75",
"OX c #D59C7B",
"+X c #DC9C7B",
"@X c #D7957B",
"#X c #E29C76",
"$X c #E39D7A",
"%X c #E39773",
"&X c #E0946F",
"*X c #DDA176",
"=X c #D6A27B",
"-X c #DCA37B",
";X c #E4A47C",
":X c #E6A47B",
">X c #BC9A82",
",X c #B69A87",
"<X c #A99282",
"1X c #BDA391",
"2X c #C39D82",
"3X c #CC9D82",
"4X c #D79D81",
"5X c #CCA283",
"6X c #C7A389",
"7X c #D3A385",
"8X c #DCA282",
"9X c #DAAB8D",
"0X c #D7A88A",
"qX c #DDB08E",
"wX c #C5A592",
"eX c #C2A898",
"rX c #C9AB98",
"tX c #D5AB92",
"yX c #DBAD93",
"uX c #DAAE98",
"iX c #DBB193",
"pX c #D4B29D",
"aX c #DAB49C",
"sX c #CFB09C",
"dX c #E3A584",
"fX c #E3A884",
"gX c #E3AB8B",
"hX c #E9AC8C",
"jX c #E6A685",
"kX c #ECAF91",
"lX c #E6AF92",
"zX c #E3B195",
"xX c #EBB295",
"cX c #E3B49B",
"vX c #ECB59A",
"bX c #E0B08A",
"nX c #DEB7A0",
"mX c #E2B8A1",
/* pixels */
"                                  X . . . . . . . .                                   ",
"                            o X . X . . . . . . . . . . .                             ",
"                        . . X . . . . . . . . . . . . . . . .                         ",
"                      . . X X . . . X X o X o X . . . . . . . .                       ",
"                  . X X X X . . O $ $ o X o o o X X . . . . . . . .                   ",
"                $ O % & + o o o $ % = = ; % + + # o X . . . . . . . .                 ",
"              5 5 5 5 , % # @ - 7 v v u , ; # o X X X . . . . . . . . .               ",
"              5 5 < > 8 - 1 u b v F j u u 7 = = # + + + X . . . . . . .               ",
"            * , 5 > 8 h b C J C v K v V C x y 2 - = - + % % o X X X . . .             ",
"          5 w h 8 8 z W i.L T C K U U o.o.R v V y y ; - 2 % # 7 7 + X . . .           ",
"        > 5 f S w n R E.i.X.U L I W +.>.:.o...G H G 3 a ; = ; ; + X X . . . .         ",
"        < q J S l J z.}.=.O. .W W :.u.A.A.g.r.:.u.G p p - 7 y = + o X . . . .         ",
"      > , f L L ~ X.8Xx.W 3.X.W +.d.]. XXXE.d.g.9.G a y 3 p y y 2 + + # O . . .       ",
"      < 0 J <.C.<.S.|./ e.3.X...e.]. X XE.f.g.T.>.C d i a C K F 7 = - : & O X .       ",
"    $ 8 S ( C.H.i.}.D.D.F.X.' :.R.XX+XQ.N.W.W.f.Y C a c G Y Z d B j f f 8 $ O . .     ",
"    > l P 1.L.[.0X7X8X8XD.R -.W.$X+XXX X XW.T.8.I I } :.:.:.] o. .R C c f & O X X     ",
"    8 S ~ 4.2XtXyXgXgX=Xc.e.'.dXjXdX+X+XoX Xf.@.#.d.b.h.d.r.8.+.[ U U x u * O X X     ",
"  < l ! ) 4.3XtX9X9XfXOXW.dXhXlXhXjXdX$X XN.g.W.'. XW.Q.T.g.u.:.W U F j 8 & @ o O X   ",
"  e N ^ ( z.tXtX7X{.S.z.S._.4XjXlXlXhXdX4X+X$X4X+X+X X XW.N.d.>.o.W F x , & $ o O O   ",
"  m Q ^ <.3XtX0XH.( L K S W 4.S.0XlXlXhXgXdXdX4X8X+X+X X'.R.c.2.,.W F j 1 $ $ O o O   ",
"r m Q ^ H.tX3X5.~ C N n f w f b O.x.3X8XgXgXdXgX8XOX XW.f.X.J x u x 0 q * $ $ O o O X ",
"w M Q 5.0XtXZ.( / / O.;.=.K v l f f C ;.D.4XgXdX Xf.;.=.J 8 : % = % ; % O $ @ O O O X ",
"w M S C.0X7XZ.z.c.R.`.`.W.A.f.t...I C R p.@X9X8Xb. .F x 2 = - , q > % % @ @ $ O O O X ",
"m m ! 2X9X0X6X3X3XR.g.c.p.,.[ +.r.g.d.d.W.dXjX@Xp.K i 7 u x G ' o.U 7 % $ o @ @ O . . ",
"~ k ) 4XyX0X8X8X^.A.;.~ z < * c ] w.h.I.oXhXjX].2.i 4 C Y Y ] ,.[ Y U i > $ @ $ o X X ",
"1.k 6.uXyXgX;X).U.>.I ;.( 8 3 / -.7.m.m..XdXoXN.R = = V H C h j V V x V u ; $ $ o X X ",
"k.M x.uXyXfX;X*X).W.T.R.D.t.#.$.$.a./.!.oX+X Xr.c # + p ;.P * @ 2 7 7 y x 7 % $ O X . ",
"j.m z.pXyXfX:X:X:X;X.XQ.N.h.w.q.w.h.!..X+X+X'.q.i # + A u.8.I c V d ; 2 0 7 = % O X o ",
"S.N K.uXzXfXfX;X:X:X:X$X X!.Q.U.m.Q..X#X+X+X X@.t # + 3 #.$.{ ] H V y y i q , * $ X X ",
"|.) >XuXzXgXhXfX%X(.~.(.(.!.!.!.(.(.$X+X+X+X!...4 = = 3 +.$.{ [ } Z Z H U d 7 * $ X o ",
"OXP.wXpXcXzXhXfX$X&X~.~.~.Y.~.(.(.oX+XoX X#X~.] 2 = = V { 7.7.{ { { ,.,.Y F 0 * @ X O ",
"dX,XwXaXcXzXlXjX:X#X%X(.~.(.#X:XjX:X+XXX(.#X!.7.i = = } 7.7.7.7.7.7.{ W U F 8 * @ o * ",
"gXwXwXaXmXcXvXxXkXjX$X:X$X$X$X:X$X.X X%X+X.X!.g.} 3 # g q.s.s.s.w.q.@.[ C j < > @ O e ",
"zXwXeXpXnXmXcXvXvXxXhXdX%X~.&X:X&X@X@X8XjX$X!.T.+.p = = V N.Q.m.m.w.8.' b 8 1 : @ $ Q ",
"jXwXeXpXaXmXmXvXxXkX:X.Xm.Y.%X:X$X4X4X4XgXgX.XR. .3 = - - ] (.~.N.m.r. .x > * > $ * V.",
"  wXeXsXaXmXvXzXkXjX(.h.N.$XjX:X@X`.N.b.`.`.R.#.p : 4 = = a g.!.!.N.r...j : : * @ 5   ",
"  P.eXsXnXnXqXgXfX Xh.E.-X4X@X X`.D._.>Xc.t.X.z : # # - 3 A a.!.!.N.0. .f : > : O r   ",
"  l.1XsXnXpXqXbX-XI.F.}.}.[.[.[._.2X2Xb.x.t.i.3./ b j j C X.r.v.'.R.t.W 9 : & * $ Q   ",
"    1XsXpXiXqXqXXXE.3X3X3X3X3X4X3X0X4X Xc.f.A.c.3. .T C C T O.e.g.E.i.L 8 & & % @     ",
"    1XrXpXaXqXqXXX].5X[.b.c.b.N.N.'.'.N.N.y.y.*... .R L P T ..O.,.W.i.K < % > % <     ",
"    <XsXpXiXqXqX-XXX|.F.I.8.$.%.%.&.&.n.%.*.` A V d d d F ,.Z.W [ ^.i.K w * * r _     ",
"      rXpXaXiXqXqX=X^.XX*X*X'.N.B.B.B.n.%.%.| ` A s 3 2 v 9.u.W 9.I.,.T z * r _       ",
"      1XsXaXiXiX0X=X=X*X-X;XfX+X4X4X@XW.B.y.&.#.} A i y V 9.I.-.I.-.' ( N > D <X      ",
"        rXtXiXqX=X=X=X=X*X;X:X8X=XOX`.S.b.S.c.>.[ Z v V Y 9.9.I.u.W =.( h 6 ^         ",
"        1XtXtX5X5X=X}.}.=X*X;X;X:X=XF.A.p.C.9.,.{ Y [ Y Y [ C.A.X.W ;.E w k )         ",
"          wX6X6X5X5X5XL.}.=X).*X*X:X).^.A.A.I.I.a.9.-.,.U G [ o.E ( ( S 6 ^           ",
"            6X6X6X}.>X}.L.|.^.^.).^.E.A.A.a.0.a.I.9.9.o.F x L L E ( L 9 e             ",
"              }.6X>X}.L.L.L.F.E.E.E.I.A.I.u.,.,.,.+.o.U x 7 j J E L j ;               ",
"              6X>X>X>XP.P.H.H.F.F.^.^._.R.f.>.=.' E J F 5 * 0 J E S 8 >               ",
"                }.6X>X,XK.K.L.H.L.F._.^.F.A.2.;.E P S u > $ 0 J b 9 5                 ",
"                  >X>X,XK.K.H.L.L.F.F.S.F.p.4.=.P S l 8 % * q z 0 5                   ",
"                      K.P.K.G.C.H.C.Z.C.x.4.1.( E J h > * % 5 0                       ",
"                        P.P.Z.Z.Z.4.5.Z.4.1.<.( P S 8 < > > 5                         ",
"                            Z.Z.V.5.6.5.1.<.) ~ S h 6 6 6                             ",
"                                  4.4.5.6.) ( P S w                                   "
};
