/* XPM */
static char *cbadd32705c74da4c3fffa735d906134[] = {
/* columns rows colors chars-per-pixel */
"64 64 250 2 ",
"   c #040303",
".  c #0A0605",
"X  c #0C0906",
"o  c #0C0B09",
"O  c #070709",
"+  c #130A07",
"@  c #130D0B",
"#  c #1A0E0A",
"$  c #1C120D",
"%  c #16110D",
"&  c #0D0E11",
"*  c #1D1411",
"=  c #171717",
"-  c #25140D",
";  c #2B170E",
":  c #221611",
">  c #231A14",
",  c #2A1C15",
"<  c #2A1F18",
"1  c #271B16",
"2  c #331C12",
"3  c #3C1F14",
"4  c #32150E",
"5  c #2C221B",
"6  c #24211C",
"7  c #34241B",
"8  c #3A2519",
"9  c #1A1B23",
"0  c #282523",
"q  c #342923",
"w  c #382C25",
"e  c #383839",
"r  c #38332E",
"t  c #47291B",
"y  c #532A1D",
"u  c #56301F",
"i  c #462C21",
"p  c #483429",
"a  c #533323",
"s  c #5B3C2C",
"d  c #583727",
"f  c #463C35",
"g  c #57372B",
"h  c #643C29",
"j  c #693128",
"k  c #411812",
"l  c #46423D",
"z  c #584436",
"x  c #4D523A",
"c  c #69422E",
"v  c #634434",
"b  c #6A4432",
"n  c #6A4B3A",
"m  c #774B36",
"M  c #78513C",
"N  c #76452F",
"B  c #476D3C",
"V  c #3E4141",
"C  c #4B4A49",
"Z  c #544B45",
"A  c #584D47",
"S  c #59534A",
"D  c #595957",
"F  c #4D5252",
"G  c #695546",
"H  c #785847",
"J  c #625A53",
"K  c #645D5A",
"L  c #665B52",
"P  c #674F42",
"I  c #557544",
"U  c #6E6155",
"Y  c #66615D",
"T  c #6C645E",
"R  c #666A51",
"E  c #71655B",
"W  c #73675A",
"Q  c #73704E",
"!  c #6C6561",
"~  c #6A6967",
"^  c #716760",
"/  c #746A63",
"(  c #796D65",
")  c #706D69",
"_  c #7B746C",
"`  c #76716A",
"'  c #6D7175",
"]  c #737473",
"[  c #7C7D7B",
"{  c #787876",
"}  c #6B6F6F",
"|  c #5F656A",
" . c #8D3A34",
".. c #83533C",
"X. c #8A543B",
"o. c #90543C",
"O. c #A3443E",
"+. c #835944",
"@. c #895943",
"#. c #965D44",
"$. c #A55E47",
"%. c #B55C52",
"&. c #B3534B",
"*. c #8A614A",
"=. c #99644B",
"-. c #886955",
";. c #986953",
":. c #97735D",
">. c #8A755C",
",. c #A4674A",
"<. c #A76C54",
"1. c #A97358",
"2. c #BA7B5D",
"3. c #B57658",
"4. c #B56953",
"5. c #9A7963",
"6. c #847D76",
"7. c #827866",
"8. c #A57C65",
"9. c #B77C62",
"0. c #C4785C",
"q. c #C67A63",
"w. c #CB6C61",
"e. c #C05B53",
"r. c #488845",
"t. c #46954A",
"y. c #5A8449",
"u. c #6E8451",
"i. c #7F807E",
"p. c #87837C",
"a. c #93916A",
"s. c #A9836C",
"d. c #BB8468",
"f. c #AC8A74",
"g. c #B58C73",
"h. c #B4937C",
"j. c #B99379",
"k. c #A79A79",
"l. c #B0A87B",
"z. c #C4815E",
"x. c #D2855E",
"c. c #C38364",
"v. c #C48B6B",
"b. c #CB8B6C",
"n. c #C88667",
"m. c #D38D6B",
"M. c #D68A67",
"N. c #D7936C",
"B. c #C48C73",
"V. c #C99679",
"C. c #D49373",
"Z. c #DB9673",
"A. c #DC9C7B",
"S. c #D89A77",
"D. c #CF8E6F",
"F. c #E39C77",
"G. c #E0946F",
"H. c #DBA279",
"J. c #E4A47C",
"K. c #E6A47B",
"L. c #747B82",
"P. c #7B8389",
"I. c #7C8B99",
"U. c #7C90A3",
"Y. c #828484",
"T. c #898A88",
"R. c #928A83",
"E. c #95928C",
"W. c #8C9395",
"Q. c #939493",
"!. c #9C9B94",
"~. c #9B9C9B",
"^. c #969899",
"/. c #878E92",
"(. c #BB9A82",
"). c #B59985",
"_. c #A39E99",
"`. c #A69785",
"'. c #B8A78D",
"]. c #A5A19C",
"[. c #B9AA90",
"{. c #8A98A6",
"}. c #959DA4",
"|. c #8A9EB3",
" X c #9CA2A4",
".X c #9AA4A9",
"XX c #8CA4BB",
"oX c #98A6B7",
"OX c #9FB0B4",
"+X c #A4A4A3",
"@X c #A5AAAC",
"#X c #ACACAB",
"$X c #A8A7A6",
"%X c #B2ADAA",
"&X c #B6B3AD",
"*X c #A6AEB4",
"=X c #AAB3B8",
"-X c #B4B4B3",
";X c #BDBCBC",
":X c #B6B8B8",
">X c #AFB0AE",
",X c #C59D82",
"<X c #D69D83",
"1X c #CCA284",
"2X c #C7A389",
"3X c #DCA282",
"4X c #D7A88A",
"5X c #C7A995",
"6X c #D3AC93",
"7X c #DBAD93",
"8X c #DAAE98",
"9X c #D8B299",
"0X c #CAB78F",
"qX c #E3A584",
"wX c #E3AB8B",
"eX c #E6A988",
"rX c #E9AE91",
"tX c #E7B398",
"yX c #E0B08A",
"uX c #C1BEBC",
"iX c #DEBAA4",
"pX c #E2B8A1",
"aX c #BFC0BF",
"sX c #CDC598",
"dX c #C2C1BE",
"fX c #D9CFA5",
"gX c #E4D8AF",
"hX c #F2E3BA",
"jX c #95ACC3",
"kX c #94AEC7",
"lX c #A7B6C7",
"zX c #B4BEC5",
"xX c #A7B7CB",
"cX c #B8C4CA",
"vX c #BCCAD2",
"bX c #C4C4C4",
"nX c #CCCBCB",
"mX c #C8C7C6",
"MX c #CECED0",
"NX c #D4D3D4",
"BX c #DBDADB",
"VX c #D8D6D7",
"CX c #D1CECE",
"ZX c #E2DEDD",
"AX c #F7EBC7",
"SX c #FEF6DC",
"DX c #FDF4D5",
"FX c #ECE7D4",
"GX c #E7E4E3",
"HX c #FEF8E1",
/* pixels */
"kXXXI.U.XX|.|.jXXXjXjXkXlXT.~ ! ^ ^ ! ! T ! T ! 6.Q.^.-XMXmXmXbX:XbXnXaX:X:X].i.! T T ! ! ^ ^ ^ ^ ^ ^ ^ ^ ^ T T ^ ^ K ^ / ~ / ~ ",
"kXjXU.jXU.XXjXXX|.jXjXxXoXL.! ! ! ! ! ! Y T T T T ! ` #XNXMXMXmXmX;X#XaXCXnX&XT.W T E ^ ! E ^ ^ ^ ^ ^ ^ ^ ^ ^ ^ ^ ^ ! ! / / / / ",
"U.kXkXkXjXjXXX|.XX|.{.jX{.) Y ! ! ! ! ! ! ! ! ! ! T ) _.NXVXNXbX$XT.Q.:XcX-X+X].].p./ ^ ^ E E ^ / ^ ^ / ^ ^ ^ T ^ ^ ^ ^ / ! / ~ ",
"P.I.U.U.XXjXkXjXU.I.oX}.L.] ] { ] ! ! ! ! ! Y ! T T T { ~.cXMX>XT.!.:XaXdXdXnXVXCX:X6.W _ { / / ^ / / / / ^ ^ ^ ^ / ^ ^ / / / ( ",
"| Y ~ I.jXkXjX{./.|.oX}.}.oXoX@XW.) ! ! T T T ! ^ K D l f C D C e e V F T.#XbXbX:XmXE.p.&X%X[ ! ^ / / ^ / ^ ^ T ^ ^ ^ T ! / ) ( ",
"Y D ~ I.kXkXjXXX|.oXoXoXoXlXzXxX}.) ! ! ! T D x r 0 % o O O .           O = V D [ >X+X:XnX#Xp.p._ ^ ^ ^ / / ! T ^ ^ T T / / ) / ",
"Y Y ! P.U.jX|.U.{.oXoXP.W.lXxXxXY.! ! ! J f = o       . O O                 O   o 0 } zXbX-X:XbX~./ ` R.6.^ ! ^ ^ ^ T T ^ / ( / ",
"Y D D ~ L.' ~ L.oXoX/.{.oXlXxX*XT.Y.[ D 0 % .   . . .                             O = D /.;XnXnX;Xp.E.-XT._ R.Q.( / ( ! ^ / ( / ",
"Y Y K Y Y Y ) {.oX{.}.oX}.oX*X}.=XlX' q &   .     .           .                       O & C /.*XmX$X:X;XE.$XbXzXT.~.+X6.! / / ( ",
"K Y K Y Y ! P.jXjXoXlXoXoXoXY.P.{.| q &   .     . .       . . X . X . .                     = F Q.~.:X;X#XuXmXnX:XuXnX+X` ^ / / ",
"Y Y Y Y T Y P.xXxXxXxXjX{.L.) ! l q 7 o . . . X .   . X % % X . X X . . .                       = ~ zXbXbX;XbXmX;X#XMX:XY./ / ( ",
"Y Y Y Y Y Y ' {.oXoXkXxXY./ ] C 6 5 * @ o $ $ o X . X # $ - ; ; # + @ % . .                     O 9 ] ;XCXVXMXmX;X>XnX;Xp./ / ( ",
"Y Y Y Y Y Y ! ~ ' ] |.xXoXP.D 5 6 5 5 5 < 5 , $ # @ ; 8 d d 8 5 ; # X X . .                     .   & D >XmX#X_.bXMXMX#X_ / ( ( ",
"Y Y Y Y Y Y Y Y T T /.xXxXL.0 1 5 5 5 q 1 : 7 , ; t d d v a t t 8 - - + + + + X                   O O & D 6.` ` R.$X_.6.^ / / ( ",
"K K K K T K K Y K Y ) }.oXV : 1 6 * 5 6 > 7 i d h v c d c d h h u t ; - - ; + # $ + . .               O 6 K ^ ^ / ( ( / / / ( ( ",
"K K K K K K K Y K K K ' C 1 * 0 5 w i 7 8 p M 1.n m h b m m #.@.m h c t t ; ; 2 # # 8 8 +               . Z / ^ / / / / / / ( ( ",
"D Y K K K K Y Y K Y T A = o o 1 < i v w g H n.:.+.P m h ..#.=.=.@.@.c m c 3 i 4 - ; - + . .             . e ( / W / ( W / ( ( ( ",
"K K D K K K Y Y Y Y K w X X % < 7 v s p v 8.<X@.@.+.H ..=.4.d.9.2.<.,.<.N t t 4 8 t - + . .     O       O A ]._.( / / ( / / / ( ",
"K K K K K Y Y ! T Y A = X X : 4 i n n G @.<X8.H =.+.M #.1.D.C.S.b.3.2.,.h u t 3 t t t 2 + + # @ O         D ZXbX_ / / W W ( ( ( ",
"K D K K K K Y Y Y Y V @ X @ 1 w z -.s.*.d.V.H ,.;.+.@.<.C.S.C.v.2.9.c.;.h u i a h c h 3 - ; : % o         V BXdX7.W ( _ _ W ( ( ",
"J K K J K Y Y T Y ! V @ @ % q g +.s.g.:.V.d.d.v.+.+.,.v.S.S.v.q.b.b.2.M h u j h m h u d y i i 3 % X       & ^.!._ p.%XdX&XR.( ( ",
"K K K K K Y Y K T [ V # @ : p P -.g.V.4X4X3X4Xd.M #.n.A.A.S.C.D.b.q.=.N h +.#.,.=.o.o...M h g i * @ O       C _ !.CXGXVXCXdXp.W ",
"K K J K K K T K ! ^.D = * 7 z H 5.,X6X4XyXwXH.9.<.C.qXqXJ.F.A.A.C.9.#.,.4.9.3.3.<.,.#...M b a i * o . .     . Y CXFXGX&X!.CX!.U ",
"J K K K K K T K ~ }.} 1 < p P H 8.,X7X7XwX4XS.b.F.rXrXwXeXqXF.C.q.2.n.D.C.D.n.c.2.3.=.m m h a 8 * @ . o .     C CXZXFX!._ !.`.0X",
"K K K K K Y ` T.[ Y.F 7 w g G U 8.4X7X<X,X9.9.9.B.<XeXrXrXeXqXA.S.A.A.A.Z.Z.C.b.d.3.=.@.m b a < * % X X X     e &XGXNXp.Q l.gXDX",
"J K D J J ~  XzXzXQ.V w f v G -.,X7X<Xf.+.P n s H :.g.<XtXrXwXwXqXqXqX<X<XA.C.m.v.2.<.@...b i 1 % % o X X     V %XGX&Xp.[.hXSXSX",
"J K K K K !  XvXMX.Xe 7 f A L g.8X<X5.G s s p i w i g +.8.V.3XwXwXwX4X3X<XV.b.9.X.v a t a t 7 - % & o X X . . r &XgX].fXDXHXHXSX",
"K J J K J K Y.zXvX' 0 q f z :.6X4X8.G H H +.;.*.h g p i t z =.v.<XeXqXC.9.#.@.v 7 > * * - : % @ @ @ @ o o . X r p.2XgXDXHXHXSXSX",
"L.J J K ! ' /.zXzX~ i w f A 8.wX<Xs.s.s.d.b.b.b.q.9.<.*.b c M 1.C.qXJ.d.+.b a 2 ; : , 8 ; # $ @ % @ @ o X O o z a.gXDXSXSXSXSXSX",
"{.~ K Y.+X*XzXbXvX).P p p P ,X4X4X,X1XS.v.2.2.1.#.+.o.4.2.3.3.b.wXwXS.3.h y 8 t u c M X.m 8 - @ + & @ o O O O B fXDXSXDXSXDXAXsX",
"jXL./ *XvXvXlX@XzX7Xq.G f H 5X4X4X4XH.D.2.=.M p 0 * d o.4.3.z.Z.wXqXD.;.y 4 h m m X.o.o...b t ; # @ @ o O O % a.SXSXDXSXAXfXa.y.",
"lXL.) =XvXzXlX^./.6XG.;.p :.7X7XwX3XZ.n.=.m -.H 7 3 H #.,.0.z.Z.qXA.c.m - - h c v p a h a a h t 1 % % @ O O % [.SXDXDXgXl.u.r.t.",
"{.} ~ .XcXOX=XcX}.'.eX5.l 5.8XrXyXK.K.Z.b.n.c.d.<.#.$.$.3.m.m.Z.F.C.4.g @ # t #.c - % 2 8 2 t u 8 $ $ %     6 0XDXDXgXa.y.t.t.r.",
"~ J R i.zXOX}.=XzX:XtX8.f 8.8X8XJ.K.K.K.J.Z.n.x.3.4.,.4.3.m.C.F.<Xm.<.y # + g 4.,...u c u ; ; t 2 > % % .   x hXAXsXu.t.t.t.y.a.",
"Y ) ] } W.=X=X.XzXbXiX8.g ).8XrXqXJ.K.K.F.J.F.G.m.n.q.c.M.N.A.<XF.D.#.k - # 3 #.#.o.X. .h 3 t t 8 , * %   . a.AX[.y.r.t.r.y.l.hX",
"i.@X=XW.i.W.*X:XzXbXiXD.E (.8X8XyXyXK.F.N.M.M.G.N.M.M.M.N.F.F.<XF.m.@.4 - # 3 #.,.o.X.X.h N N N a 8 * % . . >.2Xy.t.t.r.y.l.hXhX",
"W.cXvXcX*XW.P.^.zXbX8XA.`.5X8X8XtXwXqXF.G.G.w.x.M.M.Z.G.G.F.Z.Z.Z.M.o.4 # - j o.#.$.#.o.o.#.#.m s 8 * % O o l B r.t.r.y.0XhXfXa.",
"P.zXvXcXcXcX*XOXbXzXqX<X).5X8XpXtXrXeXqXK.F.G.G.N.G.K.qXqX<XZ.Z.F.m.$.y - - m #.$.$.$.$.,.#...m s 8 > % o $ r B t.r.u.sXhXsXu.r.",
"i.=XcXOX}.lXcXvXbX%X<XrX5X5X8XiXpXtXrXrXeXK.K.F.F.F.K.F.Z.Z.Z.<XZ.m.3...3 # y ,.3.3.4.4.,.#...h a , > o o r n x B B H.hXsXu.r.t.",
"}.zXvXOX] [ *XcXzX_.3XtX5X5X5XiXpXtXrXtXrXrXqXG.M.N.K.F.Z.Z.<XwXqXN.n.o.t - - h z.x.x.0.4.,...g 7 > > % $ S Q R x s.hXfXu.r.r.r.",
"cXcXcX@X} } OXvXoXR.eXeX5X5XiXiXpXpXtXtXrXqXG.0.q.F.qXF.A.<X<XrXwXS.c...3 4 : 4 @.m.m.q.2.<.@.a 6 : : # * p.&XdXE.a.l.>.I y.y.a.",
"zXOX:X=XW.p.=X:XT.( <XrX5X[.5X8XpXtXrXwXqXZ.0.q.<XqXF.F.D.q.q.,Xn.c.=.i : 4 - - y w.N.m.q.1.@.a > : * @ 6 dXGXBXCX%XE.R B u.l.hX",
"=XW.W.>X=XW.p.i.! J -.8.f.5X5XiXpXtXyXeXC.2.v.S.<X<X<XB.B.B.g.9.<.+.g : # $ 1 7 h 1.M.D.z.,...i - : : % r dX].!.mXVXCX[.Q sXDXAX",
"cX.X) W.:X+X} J J J J J 6.5X8XiXtXyXyXH.z.v.,XV.q.,XB.,Xj.B.9.8.:.1.-.m s p a h @.4.9.D.v.1.M 8 : * $ @ l CX].W E.dXuX_.>.l.fXsX",
"cX=XY.T.=X@X] L J L J J _ [.5XiX9XyXyXH.v.V.1XV.,X,X<X<X<X<XV.9.9.9.9.#.+.n h h m #.<.2.v.1.n 2 * * * # l uXmXE._ !.dX!.W ( Q Q ",
"cXcX*X@X@XT.R J L L J S ^ [.5X9X9X0XyXH.V.V.V.v.9.9.q.q.D.m.q.w.4.%.&.@.@.m b n n +.@.=.v.1.v 2 * * $ 6 W $XNXNX&X].uXdXE.p.x r.",
" X.X].W.{ Y ! [ ( K J J K `.5XiXyX0XyXH.S.V.v.d.$.%.&.%.%.%.e.%.&. .j y j y y j *.;.+.X.b.1.v 8 * > p ` dXZXGXGXGXNXnXNXdXR.B B ",
"^.Q.[ Y J D Y.+XQ.K J K / R.5X9X9X7XyXH.H.V.C.H.<XD.w.w.w.w.e.%.&.&. .j y 4 4 j <.3...=.z.=.n z > q ( uXGXGXGXGXZXBXnXmXVX[.x Q ",
"OX@X^.T S ~ ~.=X^.T ] Q.].].[.9X9X7XyX4XH.H.H.K.J.yXH.H.H.Z.m.w.0.$.o.X.h u t c ,.z.=.z.=...H p > l p.NXZXdXNXBXmXNXnX!.a.u.'.gX",
"$X*X@Xi.Y T.*X=X^.{ ~.>X X$X'.5X6X6X6X4XV.H.H.H.J.K.3X3XV.V.d.9.2.3.,.Q c u h N =.,.z.s.M *.H p 6 G p.CXBX].$XBXdX&XVX&Xp.V.hXAX",
".X X@X~.T..X=X=X^.p.#X$X/.+X_.2X6X6X0X1XH.H.V.H.H.J.J.J.H.d.1.s.3.<.=.X.....M ..X.,.z.M M -.M 8 r U ( :XFX#Xp.dXCX$XdX&Xl.hXhX0X",
".XY.~.=X$X.XW.@X~./.=X XE.$X$X).2X2X1XV.2XV.l.V.S.H.H.J.J.N.v.z.d.z.3.3.,.,.*.N c *.*.M +.*.z 5 J p.k.%XBXCX!.].NXdXuXuXk.l.a.r.",
" X{ ^.#XT.) ]  X XQ.>X+X^.@X].).).2X1X2X1X,Xj.V.B.D.N.N.N.v.z.d.1.,.3.3.,.,.#.c a B N M H n 8 r ].MXVXMXVXBXmX$XnXVXCXNX!.B B t.",
".XY. X~.T S Y ~.@XQ.*X>X@X@X_.'.).,X2XV.,X(.(.j.j.g.v.v.v.z.d.z.3.#.#.#.*.X.M a 8 a c M n g , T VXBXBXBXNXBXBXNXNXBXZXNXE.x B B ",
"OX X~.i.~ ~ } ~.@X^. X-X:X*X_.5X).).'.V.(.(.).f.g.g.d.v.j.N.v.v.z.=.#.M m c s 8 > t v M s < : T.CX:XNXBX:XdXNXdX;XmXCX%X/ P x Q ",
".X/.i.T.^.^.~..X*X X/.+XzX:X$X5X'.).j.2X(.(.h.).g.j.j.j.d.V.V.d.s.s.=.M x a p > $ 8 x s q 4 1 +XnX!.aXBX:X!.nXmXR.6.R._ U U Q l.",
"! D J [ Y.P.{ i.Q.Y.! ` Q.^._.5X5X'.j.(.(.(.h.h.g.g.j.j.g.g.d.g.<.;.*.n v p 7 $ * 7 g i 1 : 1 ^.VX$X%XVXMXQ.zXVX].W E U E U U >.",
"Z Z Z A A A A A J J A S J K 6.5X5X2X(.(.j.(.).k.h.f.f.f.d.8.8.8.s.-.Q n v p 6 * * 1 q < 1 : : e ;XmX;XMXVX-X;XVX$XW K U U E U L ",
"Z Z Z Z A A Z A A A A A A ! R.2X5X5X2Xj.(.h.(.h.f.f.5.5.5.:.1.5.*.*.H n z 7 6 > 1 1 7 < 1 : : & | bXnXMXVXVXVXMX].p.p.7.W U W W ",
"Z Z Z Z Z A A A A A A A K Q./ ).6X6X2X'.(.(.h.h.k.s.s.5.5.:.5.-.Q H G z p 5 , 5 < 7 < < : : = & 9 Y.+X;XVXVXVXMXmXnXnX+XW U W W ",
"Z l Z Z Z Z Z Z A A A A R.R.f ).6X6X2X2X2X(.j.h.f.f.s.s.5.>.>.>.W H n f w 7 7 q q 8 7 1 : : * & = e Y._.bXVXVXVXVXVXuXR.U U U U ",
"Z Z Z Z C A A A A A A 6.$XT 7 ,X9X6X6X2X1X1X'.h.h.f.s.s.s.:.:.-.-.G n z p p w w q 7 < 1 1 1 * = 9 9 D *X$X+X%XmXMX:X6.^ 7.7./ E ",
"L.| A Z Z K L.~ ~ L.P.}.$XZ 7 ,X9X6X7X2X2X2X1X,Xj.k.s.s.s.5.>.-.H H n x z p w w q 8 q w 7 5 9 A e 9 9 ~ ^.^.*XMX-Xp.6._.zXaX_.( ",
"L.L.| Z K P.U.I.I.U.|.%X+Xl 7 B.4X6X6X6X1X2X2X1X2Xj.f.s.5.5.:.>.H G n z p p p p f g g g i i A 6.V 9 9 e @XbXMX;XR.^.uXnXnXMX;XR."
};
